<?xml version="1.0" encoding="UTF-8" standalone="no"?>
<!-- Created with Inkscape (http://www.inkscape.org/) -->

<svg
   xmlns:dc="http://purl.org/dc/elements/1.1/"
   xmlns:cc="http://creativecommons.org/ns#"
   xmlns:rdf="http://www.w3.org/1999/02/22-rdf-syntax-ns#"
   xmlns:svg="http://www.w3.org/2000/svg"
   xmlns="http://www.w3.org/2000/svg"
   xmlns:sodipodi="http://sodipodi.sourceforge.net/DTD/sodipodi-0.dtd"
   xmlns:inkscape="http://www.inkscape.org/namespaces/inkscape"
   version="1.1"
   id="svg3680"
   width="19.218838"
   height="19.938234"
   viewBox="0 0 19.218838 19.938234"
   sodipodi:docname="key.svg"
   inkscape:version="0.92.1 r15371">
  <metadata
     id="metadata3686">
    <rdf:RDF>
      <cc:Work
         rdf:about="">
        <dc:format>image/svg+xml</dc:format>
        <dc:type
           rdf:resource="http://purl.org/dc/dcmitype/StillImage" />
        <dc:title></dc:title>
      </cc:Work>
    </rdf:RDF>
  </metadata>
  <defs
     id="defs3684" />
  <sodipodi:namedview
     pagecolor="#ffffff"
     bordercolor="#666666"
     borderopacity="1"
     objecttolerance="10"
     gridtolerance="10"
     guidetolerance="10"
     inkscape:pageopacity="0"
     inkscape:pageshadow="2"
     inkscape:window-width="1256"
     inkscape:window-height="996"
     id="namedview3682"
     showgrid="false"
     fit-margin-top="0"
     fit-margin-left="0"
     fit-margin-right="0"
     fit-margin-bottom="0"
     inkscape:zoom="18.142857"
     inkscape:cx="14.136411"
     inkscape:cy="12.770449"
     inkscape:window-x="0"
     inkscape:window-y="0"
     inkscape:window-maximized="0"
     inkscape:current-layer="svg3680" />
  <path
     style="fill:#fecb18"
     d="m 0.04727231,19.042808 c -0.326152,-0.527725 1.07056799,-2.800876 3.10382299,-5.051446 3.235816,-3.581661 3.878332,-3.91044 5.152311,-2.636461 1.5445251,1.544526 0.908696,3.647407 -1.102833,3.647407 -0.661999,0 -2.048474,1.125 -3.081056,2.5 -2.001683,2.665469 -3.116366,3.087145 -4.07224499,1.5405 z M 8.5227593,10.502842 5.1309423,7.0033753 7.1267773,4.3301723 c 3.5786787,-4.793253 4.9753997,-5.1044939 8.3590887,-1.8627138 3.270326,3.133171 4.156317,2.5226559 1.286375,-0.88641 -1.730796,-2.0559287 -1.72668,-2.0590769 0.375,-0.2868766 2.909812,2.4536411 2.737774,6.6096237 -0.412218,9.9581361 -1.422831,1.5125 -3.089498,2.75 -3.703706,2.75 -0.614209,0 -2.64306,-1.57476 -4.5085577,-3.499466 z M 11.522241,8.5023076 C 10.837552,7.6773078 10.052352,7.0023078 9.7773524,7.0023078 c -0.275,0 0.0602,0.675 0.7448886,1.4999998 0.684689,0.8250003 1.469889,1.5000004 1.744889,1.5000004 0.275,0 -0.0602,-0.6750001 -0.744889,-1.5000004 z m 5.545752,-0.574027 C 17.433075,7.3375649 16.71147,5.7681841 15.464427,4.4407673 13.702894,2.5657015 12.891282,2.2810677 11.826347,3.1648855 c -1.138282,0.9446898 -0.996361,1.5360989 0.836897,3.4875129 2.441409,2.5987605 3.413195,2.8802495 4.404749,1.2758822 z"
     id="path3690"
     inkscape:connector-curvature="0" />
</svg>
