<?xml version="1.0" encoding="UTF-8" standalone="no"?>
<!-- Created with Inkscape (http://www.inkscape.org/) -->

<svg
   xmlns:dc="http://purl.org/dc/elements/1.1/"
   xmlns:cc="http://creativecommons.org/ns#"
   xmlns:rdf="http://www.w3.org/1999/02/22-rdf-syntax-ns#"
   xmlns:svg="http://www.w3.org/2000/svg"
   xmlns="http://www.w3.org/2000/svg"
   xmlns:sodipodi="http://sodipodi.sourceforge.net/DTD/sodipodi-0.dtd"
   xmlns:inkscape="http://www.inkscape.org/namespaces/inkscape"
   version="1.1"
   id="svg4016"
   width="65"
   height="54"
   viewBox="0 0 65 54"
   sodipodi:docname="prem-icon.svg"
   inkscape:version="0.92.1 r15371">
  <metadata
     id="metadata4022">
    <rdf:RDF>
      <cc:Work
         rdf:about="">
        <dc:format>image/svg+xml</dc:format>
        <dc:type
           rdf:resource="http://purl.org/dc/dcmitype/StillImage" />
        <dc:title></dc:title>
      </cc:Work>
    </rdf:RDF>
  </metadata>
  <defs
     id="defs4020" />
  <sodipodi:namedview
     pagecolor="#ffffff"
     bordercolor="#666666"
     borderopacity="1"
     objecttolerance="10"
     gridtolerance="10"
     guidetolerance="10"
     inkscape:pageopacity="0"
     inkscape:pageshadow="2"
     inkscape:window-width="1059"
     inkscape:window-height="783"
     id="namedview4018"
     showgrid="false"
     inkscape:pagecheckerboard="true"
     fit-margin-top="0"
     fit-margin-left="0"
     fit-margin-right="0"
     fit-margin-bottom="0"
     inkscape:zoom="4.3703704"
     inkscape:cx="32.5"
     inkscape:cy="27"
     inkscape:window-x="0"
     inkscape:window-y="0"
     inkscape:window-maximized="0"
     inkscape:current-layer="svg4016" />
  <path
     style="fill:#fecb1a"
     d="M 4.5168891,49.622824 C -0.94623891,40.772695 -1.7137129,28.971108 2.5320491,19.101568 5.5106591,12.177603 13.432456,4.7890513 20.855147,2.0118666 c 11.69216,-4.3745984 23.98105,-1.7743049 33.30956,7.0482057 7.17117,6.7822007 9.81982,13.0449467 9.85231,23.2958607 0.0219,6.918283 -0.38029,8.811288 -2.97464,14 l -3,6 -25.75443,0.266891 -25.7544259,0.266892 z M 57.887527,48.166702 c 1.28526,-2.453009 1.22219,-2.854411 -0.71806,-4.569688 l -2.12709,-1.880457 2.70112,0.576472 c 2.44141,0.521046 2.80143,0.215263 3.74442,-3.180311 1.44952,-5.219519 1.51078,-5.106864 -2.96319,-5.449287 -5.20165,-0.398118 -5.20165,-2.216878 0,-2.614996 4.46304,-0.341587 4.40868,-0.24451 2.99234,-5.343723 -0.81801,-2.945042 -1.39715,-3.551064 -2.99442,-3.133369 -2.32074,0.606886 -2.70305,-1.224079 -0.43715,-2.093585 1.26458,-0.485264 1.33164,-1.000972 0.3715,-2.856988 -2.24006,-4.330215 -4.09337,-5.861376 -5.59058,-4.618805 -1.78328,1.47999 -2.95007,0.313204 -1.47008,-1.470074 1.23245,-1.485002 -0.28895,-3.3526804 -4.504,-5.5291458 -1.70629,-0.8810532 -2.26739,-0.8043788 -2.71862,0.3715009 -0.85744,2.2344592 -2.86907,1.8060438 -2.15049,-0.4579897 0.5046,-1.5898594 -0.0694,-2.1298974 -3.18261,-2.9944231 -5.26678,-1.4625489 -5.148,-1.5263993 -5.49075,2.9517475 -0.39811,5.2016492 -2.21687,5.2016492 -2.61499,0 -0.34159,-4.4630454 -0.24451,-4.4086848 -5.34372,-2.9923418 -2.94505,0.8180066 -3.55107,1.3971547 -3.13337,2.994423 0.60688,2.3207324 -1.22408,2.7030427 -2.09359,0.4371463 -0.48526,-1.2645787 -1.000971,-1.3316374 -2.856987,-0.371501 -4.330215,2.2400642 -5.861376,4.0933757 -4.618805,5.5905837 1.47999,1.783278 0.313204,2.950064 -1.470074,1.470074 -1.4885317,-1.235371 -3.3520377,0.288847 -5.5467059,4.536819 -0.958801,1.855845 -0.826069,2.2786 0.886022,2.821997 1.1075722,0.35153 1.7443622,1.075051 1.4150902,1.607826 -0.329273,0.532774 -1.4336622,0.703667 -2.4541972,0.379762 -1.486916,-0.471929 -2.065047,0.165609 -2.910266,3.209322 -1.46651,5.281039 -1.543249,5.148709 3.184099,5.490744 2.3375002,0.169124 4.2499999,0.757498 4.2499999,1.307498 0,0.55 -1.9124997,1.138374 -4.2499999,1.307498 -4.711536,0.340891 -4.644925,0.230509 -3.224693,5.343723 0.818006,2.945042 1.397154,3.551064 2.994423,3.133369 2.3316192,-0.609733 2.6978722,1.226063 0.419068,2.100522 -1.390929,0.533749 -1.367414,0.927148 0.215607,3.606989 l 1.7768102,3.007899 h 24.2524587 24.25245 z m -29.69017,-12.13951 c -2.14727,-2.372713 -2.10736,-5.470165 0.095,-7.374299 2.83094,-2.44757 14.22944,-8.150863 14.91667,-7.463627 0.86717,0.867168 -5.42098,12.758919 -7.88767,14.916667 -2.57176,2.249654 -5.04154,2.222356 -7.12401,-0.07874 z m 8.33075,-5.643274 c 1.09121,-2.140356 1.80944,-4.066146 1.59605,-4.279532 -0.76555,-0.765557 -8.69221,3.875749 -9.29299,5.441335 -0.75753,1.974106 2.46124,4.549482 4.35882,3.487541 0.74475,-0.416783 2.2469,-2.508987 3.33812,-4.649344 z"
     id="path4032"
     inkscape:connector-curvature="0" />
</svg>
